<svg xmlns="http://www.w3.org/2000/svg" xmlns:xlink="http://www.w3.org/1999/xlink" fill="none" version="1.1" width="16" height="16" viewBox="0 0 16 16"><defs><clipPath id="master_svg0_49_09226"><rect x="-0.5" y="-0.5" width="17" height="17" rx="0"/></clipPath></defs><g clip-path="url(#master_svg0_49_09226)"><g><path d="M15,8Q11.865993,13,8,13Q4.1340067000000005,13,1,8Q4.1340067000000005,3,8,3Q11.865993,3,15,8ZM8,11Q8.1473808,11,8.2940516,10.9855547Q8.4407225,10.9711084,8.585270900000001,10.9423552Q8.7298203,10.9136028,8.870854399999999,10.87082Q9.0118885,10.8280382,9.1480503,10.7716374Q9.2842121,10.7152376,9.4141903,10.6457634Q9.5441685,10.5762887,9.6667099,10.494408100000001Q9.7892532,10.4125285,9.9031792,10.3190317Q10.017107,10.2255344,10.1213198,10.1213198Q10.2255344,10.0171065,10.3190317,9.9031796Q10.412529,9.789253200000001,10.4944077,9.6667104Q10.5762882,9.5441685,10.6457634,9.4141903Q10.7152386,9.284212100000001,10.7716379,9.148049799999999Q10.8280392,9.011888500000001,10.870821,8.870854399999999Q10.9136047,8.7298203,10.9423561,8.585270900000001Q10.9711094,8.4407225,10.9855556,8.2940516Q11.000001,8.1473808,11,8Q11.000001,7.8526201,10.9855556,7.7059488Q10.9711094,7.5592775,10.9423561,7.4147286Q10.9136047,7.2701802,10.870822,7.1291456Q10.8280392,6.9881115000000005,10.7716379,6.8519495Q10.7152386,6.7157876000000005,10.6457644,6.5858097Q10.5762901,6.4558315,10.4944086,6.333288899999999Q10.412529,6.2107468,10.3190327,6.0968201Q10.2255344,5.982893499999999,10.1213207,5.8786793Q10.017107,5.7744656,9.9031801,5.6809683Q9.7892532,5.587471,9.6667099,5.5055907Q9.5441685,5.4237106,9.4141903,5.3542361Q9.2842121,5.2847614,9.1480503,5.2283611Q9.0118885,5.1719612999999995,8.870854900000001,5.129179000000001Q8.7298203,5.0863967,8.585270900000001,5.0576439Q8.4407225,5.0288916,8.2940521,5.0144458Q8.1473808,5,8,5Q7.8526192,5,7.7059484,5.0144459999999995Q7.5592775,5.0288918,7.4147286,5.0576441Q7.2701797,5.0863967,7.1291456,5.129179000000001Q6.988111,5.1719612999999995,6.8519487,5.2283611Q6.7157869,5.2847614,6.5858092,5.3542359Q6.4558311,5.4237106,6.3332887,5.5055907Q6.2107468,5.587471,6.0968199,5.6809683Q5.982893,5.7744656,5.8786793,5.8786793Q5.7744656,5.982893499999999,5.6809683,6.0968199Q5.587471,6.2107468,5.5055909,6.333288700000001Q5.4237108,6.4558315,5.3542366,6.5858095Q5.2847614,6.7157874,5.2283611,6.8519492Q5.1719608,6.9881115000000005,5.129179,7.1291461Q5.0863962,7.2701807,5.0576439,7.4147291Q5.0288916,7.559278,5.0144463,7.7059488Q5,7.8526201,5,8Q5,8.1473808,5.0144463,8.2940516Q5.0288916,8.4407225,5.0576439,8.585270900000001Q5.0863962,8.7298203,5.1291785,8.870854399999999Q5.1719608,9.011888500000001,5.2283607,9.148049799999999Q5.2847614,9.284212100000001,5.3542356,9.4141903Q5.4237108,9.5441685,5.5055904,9.6667104Q5.587471,9.789253200000001,5.6809683,9.9031801Q5.7744656,10.0171065,5.8786793,10.1213198Q5.982893,10.2255344,6.0968199,10.3190317Q6.2107468,10.4125285,6.3332887,10.494408100000001Q6.4558315,10.5762887,6.5858097,10.6457634Q6.7157879,10.7152381,6.8519492,10.7716379Q6.9881115,10.8280382,7.1291456,10.870821Q7.2701797,10.9136028,7.4147286,10.9423552Q7.5592775,10.9711084,7.7059488,10.9855542Q7.8526192,11,8,11Z" fill-rule="evenodd" fill="#191C1E" fill-opacity="1"/><path d="M15.423656,8.2655482Q12.142694,13.5,8.000000499999999,13.5Q3.8573048,13.5,0.5763441899999999,8.2655482Q0.53892988,8.2058573,0.51946497,8.1381521Q0.5,8.070447,0.5,8Q0.5,7.9295526,0.51946494,7.8618479Q0.53892988,7.7941427,0.57634416,7.7344522Q3.857306,2.50000018,8,2.5Q12.142694,2.5,15.423656,7.7344522Q15.461069,7.7941427,15.480535,7.8618479Q15.5,7.929553,15.5,8.000000499999999Q15.5,8.0704479,15.480535,8.1381521Q15.461069,8.2058573,15.423656,8.2655482ZM14.576344,7.7344522L15,8L14.576344,8.2655482Q11.589293,3.5,8,3.5Q4.410708,3.49999982,1.42365581,8.2655482L1,8L1.42365581,7.7344522Q4.4107077,12.5,8.000000499999999,12.5Q11.589293,12.5,14.576344,7.7344522ZM8,10.5Q9.0355339,10.5,9.767766,9.767767Q10.5,9.0355334,10.5,8Q10.5,6.9644668,9.767766,6.2322333Q9.0355339,5.5000005000000005,8,5.5000005000000005Q6.9644656,5.5,6.232233,6.232233Q5.5,6.9644659,5.5,8Q5.5,9.0355339,6.232233,9.767767Q6.9644656,10.5,7.999999,10.5L8,10.5ZM7.999999,11.5Q6.5502529,11.5,5.5251265,10.474873500000001Q4.5,9.4497471,4.4999994999999995,8Q4.4999994999999995,6.5502529,5.5251265,5.5251265Q6.550252,4.5,8,4.5000005000000005Q9.4497471,4.5000005000000005,10.4748726,5.5251266999999995Q11.5,6.5502529,11.5,8Q11.5,9.4497471,10.4748726,10.474873500000001Q9.4497461,11.5,8,11.5L7.999999,11.5Z" fill="#191C1E" fill-opacity="1"/></g></g></svg>