<svg xmlns="http://www.w3.org/2000/svg" xmlns:xlink="http://www.w3.org/1999/xlink" fill="none" version="1.1" width="26" height="26.000001907348633" viewBox="0 0 26 26.000001907348633"><defs><clipPath id="master_svg0_56_04882"><rect x="0" y="0" width="26" height="26.000001907348633" rx="0"/></clipPath></defs><g clip-path="url(#master_svg0_56_04882)"><ellipse cx="13" cy="13.000000953674316" rx="13" ry="13.000000953674316" fill="#FFFFFF" fill-opacity="0.800000011920929"/><path d="M20.7998047,3.900341746875Q20.7998042,3.821548576875,20.7844319,3.744269486875Q20.7690601,3.666990276875,20.7389073,3.594194976875Q20.7087545,3.521399616875,20.664979,3.455885526875Q20.6212044,3.390371466875,20.5654893,3.334656346875Q20.5097742,3.278941186875,20.4442601,3.235166086875Q20.378746,3.191390975875,20.305950199999998,3.161238155875Q20.2331553,3.131085339875,20.1558762,3.115713568875Q20.0785971,3.100341796875,19.9998045,3.100341796875Q19.921011,3.100341796875,19.8437319,3.115713568875Q19.7664528,3.131085339875,19.6936574,3.161238155875Q19.620862,3.191390975875,19.5553479,3.235166076875Q19.4898338,3.278941186875,19.434119199999998,3.334656346875Q19.3784037,3.390371466875,19.334628600000002,3.455885526875Q19.2908535,3.521399616875,19.2607002,3.594194976875Q19.2305479,3.666990276875,19.2151761,3.744269486875Q19.1998043,3.821548576875,19.1998048,3.900341746875L19.1998048,9.300537096875L13.79999995,9.300537096875Q13.72120678,9.300537096875,13.64392769,9.315908396874999Q13.56664848,9.331280696875,13.49385318,9.361432996875Q13.42105782,9.391586296875001,13.35554373,9.435360896875Q13.29002967,9.479136496875,13.23431455,9.534851596875Q13.17859939,9.590566596875,13.13482429,9.656080196875Q13.091049179,9.721594296875,13.060896359,9.794389696875001Q13.030743543,9.867185096875,13.015371772,9.944464696875Q13,10.021743796875,13,10.100537296875Q13,10.179329896875,13.015371772,10.256608996875Q13.030743543,10.333888096875,13.060896359,10.406683396875Q13.091049179,10.479478796875,13.13482428,10.544992496875Q13.17859939,10.610506496875,13.23431455,10.666222096875Q13.29002967,10.721936696875,13.35554373,10.765711796875Q13.42105782,10.809486396875,13.49385318,10.839639696875Q13.56664848,10.869792896875001,13.64392769,10.885165196875Q13.72120678,10.900536496874999,13.79999995,10.900536996875001L19.1998048,10.900536996875001L19.1998048,16.300340796875Q19.1998043,16.379132796875,19.2151761,16.456412796875Q19.2305479,16.533691796875,19.2607002,16.606486796875Q19.290853,16.679280796875,19.3346281,16.744795796875Q19.3784032,16.810310796875,19.4341187,16.866025796875Q19.489833400000002,16.921739796875002,19.5553474,16.965514796875Q19.6208611,17.009289796875002,19.6936569,17.039442796875Q19.7664523,17.069595796875,19.8437319,17.084968796875Q19.921011,17.100339796874998,19.9998045,17.100340796875003Q20.0785971,17.100339796874998,20.1558762,17.084968796875Q20.2331553,17.069595796875,20.3059506,17.039442796875Q20.378746,17.009289796875002,20.4442606,16.965514796875Q20.5097747,16.921739796875002,20.5654898,16.866025796875Q20.6212044,16.810310796875,20.6649795,16.744795796875Q20.7087545,16.679280796875,20.7389073,16.606486796875Q20.7690601,16.533691796875,20.7844324,16.456412796875Q20.7998042,16.379132796875,20.7998047,16.300340796875L20.7998047,10.900536996875001L26.199999,10.900536996875001Q26.278791,10.900536496874999,26.356071,10.885164696875Q26.43335,10.869792896875001,26.506145,10.839640096875Q26.578939,10.809486896875,26.644454,10.765711796875Q26.709969,10.721936696875,26.765684,10.666222096875Q26.821398000000002,10.610506496875,26.865173,10.544992496875Q26.908948000000002,10.479478396874999,26.939101,10.406682996875Q26.969254,10.333888096875,26.984627,10.256608996875Q26.999997999999998,10.179329896875,26.999999000000003,10.100537296875Q26.999997999999998,10.021743796875,26.984627,9.944464696875Q26.969254,9.867185096875,26.939101,9.794389696875001Q26.908948000000002,9.721594296875,26.865173,9.656080196875Q26.821398000000002,9.590566596875,26.765684,9.534851596875Q26.709969,9.479136496875,26.644454,9.435360896875Q26.578939,9.391586296875001,26.506145,9.361432996875Q26.43335,9.331280696875,26.356071,9.315908396874999Q26.278791,9.300537096875,26.199999,9.300537096875L20.7998047,9.300537096875L20.7998047,3.900341746875Z" fill-rule="evenodd" fill="#3F4346" fill-opacity="1" transform="matrix(0.7071067690849304,0.7071067690849304,-0.7071067690849304,0.7071067690849304,5.999884672943153,-8.284318872276344)"/></g></svg>