<svg xmlns="http://www.w3.org/2000/svg" xmlns:xlink="http://www.w3.org/1999/xlink" fill="none" version="1.1" width="16" height="16" viewBox="0 0 16 16"><defs><clipPath id="master_svg0_49_09306"><rect x="0" y="0" width="16" height="16" rx="0"/></clipPath></defs><g clip-path="url(#master_svg0_49_09306)"><path d="M6.588653605078125,1.47120618725C7.246373205078125,1.39369345475,7.852780305078125,1.83593228375,7.979985705078125,2.48587284375L7.996652605078125,2.59720634375L7.999986205078125,2.66653944375L7.999986205078125,7.33320664375C8.000031005078124,7.67118974375,8.252991205078125,7.95566224375,8.588652605078124,7.99520584375L8.666652705078125,7.99987264375L13.199985705078126,7.99987264375C13.936364705078125,7.99987264375,14.533318705078125,8.59682654375,14.533318705078125,9.33320664375C14.533289705078126,9.38392444375,14.527475705078125,9.43447354375,14.515985705078124,9.48387334375C13.777864705078125,12.66855034375,10.839410805078124,14.84816834375,7.577570005078125,14.63049434375C4.315728405078125,14.41281734375,1.692951705078125,11.86207634375,1.384542944078125,8.60756014375C1.076133905078125,5.35304384375,3.173094005078125,2.35504442375,6.335985705078125,1.52853964975L6.515986005078125,1.48387304875L6.588653605078125,1.47120618725L6.588653605078125,1.47120618725Z" fill="#191C1E" fill-opacity="1"/><path d="M9.333343505859375,2.333286045L9.333343505859375,5.999952825C9.333343505859375,6.368143125,9.631820025859374,6.666619825,10.000010135859375,6.666619825L13.666676505859375,6.666619825C14.126322305859375,6.666492025,14.447947005859376,6.212193925,14.295343905859376,5.778619725C13.624694305859375,3.873766625,12.126753305859374,2.375579595,10.222010255859376,1.704619564C9.788222615859375,1.551424825,9.333309809364374,1.873242525,9.333343505859375,2.333286045Z" fill="#191C1E" fill-opacity="1"/></g></svg>