<svg xmlns="http://www.w3.org/2000/svg" xmlns:xlink="http://www.w3.org/1999/xlink" fill="none" version="1.1" width="16" height="16" viewBox="0 0 16 16"><defs><clipPath id="master_svg0_0_5540"><rect x="0" y="0" width="16" height="16" rx="0"/></clipPath></defs><g clip-path="url(#master_svg0_0_5540)"><g><path d="M1.7010934899999999,8.6984234C1.07820899,8.6984234,0.76536699,7.944663,1.20628524,7.5037446L7.5051174,1.20491253C7.7784166,0.931695826,8.2214346,0.931695826,8.494733799999999,1.20491253L14.793567,7.5037446C15.234485,7.944663,14.922342,8.6984234,14.298758,8.6984234L13.598887,8.6984234L13.598887,12.897645C13.598887,14.057228,12.65886,14.997255,11.499277,14.997255L4.5005746,14.997255C3.3409915,14.997255,2.4009638,14.057228,2.4009638,12.897645L2.4009638,8.6984234L1.7010934899999999,8.6984234ZM5.9003906,10.4482441L5.9003906,8.3486338C5.9003906,7.7688422,6.3704047,7.2988281,6.9501963,7.2988281L9.0498066,7.2988281C9.6295986,7.2988281,10.0996122,7.7688422,10.0996122,8.3486338L10.0996122,10.4482441C10.0996122,11.028036,9.6295986,11.49805,9.0498066,11.49805L6.9501963,11.49805C6.3704047,11.49805,5.9003906,11.028036,5.9003906,10.4482441Z" fill-rule="evenodd" fill="#191C1E" fill-opacity="1"/></g></g></svg>