<svg xmlns="http://www.w3.org/2000/svg" xmlns:xlink="http://www.w3.org/1999/xlink" fill="none" version="1.1" width="16" height="16" viewBox="0 0 16 16"><defs><clipPath id="master_svg0_49_09215"><rect x="0" y="0" width="16" height="16" rx="0"/></clipPath></defs><g clip-path="url(#master_svg0_49_09215)"><g><path d="M8.078000346139525,1.338000039569763L8.000000246139527,1.3333333730697632L4.666666746139526,1.3333333730697632L4.549333446139526,1.3366667064697633C3.4921190761395264,1.3987969610697633,2.6666077519655262,2.2742949730697632,2.6666667461395264,3.333333373069763L2.6666667461395264,12.666666373069763L2.6700000795395264,12.783999373069763C2.7321303341395264,13.841214373069763,3.6076283461395264,14.666725373069763,4.666666746139526,14.666666373069763L11.333333746139527,14.666666373069763L11.450667146139526,14.663333373069763C12.507880946139526,14.601203373069763,13.333392746139527,13.725705373069763,13.333333746139527,12.666666373069763L13.333333746139527,6.666666873069763L13.328666746139527,6.588666773069763C13.292541746139527,6.282339473069763,13.050993746139527,6.040791873069764,12.744666746139526,6.004666673069763L12.666666746139526,5.999999873069763L10.000000246139527,5.999999873069763L9.895333546139526,5.996000173069763C9.239569446139527,5.944569473069763,8.719292846139528,5.422594873069763,8.670000346139528,4.766666773069764L8.666666746139526,4.666666673069763L8.666666746139526,2.000000063069763L8.661999946139527,1.9220000530697632C8.625875246139525,1.6156727030697633,8.384327146139526,1.3741250970697632,8.078000346139525,1.338000039569763ZM5.3336589461395265,8.666747973069764C5.3336589461395265,8.298558073069763,5.632135846139526,8.000081373069763,6.000325646139526,8.000081373069763C6.368515446139527,8.000081373069763,6.666992446139527,8.298558073069763,6.666992446139527,8.666747973069764L6.666992446139527,12.000081373069763C6.666992446139527,12.368271373069764,6.368515446139527,12.666747373069763,6.000325646139526,12.666747373069763C5.632135846139526,12.666747373069763,5.3336589461395265,12.368271373069764,5.3336589461395265,12.000081373069763L5.3336589461395265,8.666747973069764ZM10.000325446139527,9.333333373069763C9.632135646139528,9.333333373069763,9.333658946139526,9.631810573069764,9.333658946139526,10.000000373069764L9.333658946139526,12.000000373069764C9.333658946139526,12.368190373069764,9.632135646139528,12.666666373069763,10.000325446139527,12.666666373069763C10.368515746139526,12.666666373069763,10.666991946139527,12.368190373069764,10.666991946139527,12.000000373069764L10.666991946139527,10.000000373069764C10.666991946139527,9.631810573069764,10.368515746139526,9.333333373069763,10.000325446139527,9.333333373069763ZM7.3336589461395265,11.333252273069764C7.3336589461395265,10.965062473069763,7.632135646139527,10.666585373069763,8.000325446139527,10.666585373069763C8.368515746139526,10.666585373069763,8.666992446139528,10.965062473069763,8.666992446139528,11.333252273069764L8.666992446139528,11.999918373069763C8.666992446139528,12.368108373069763,8.368515746139526,12.666585373069763,8.000325446139527,12.666585373069763C7.632135646139527,12.666585373069763,7.3336589461395265,12.368108373069763,7.3336589461395265,11.999918373069763L7.3336589461395265,11.333252273069764Z" fill-rule="evenodd" fill="#191C1E" fill-opacity="1"/></g><path d="M12.666666781652832,4.666666781652832L10.000000048312833,4.666666781652832L9.999333381652832,1.999333381652832L12.666666781652832,4.666666781652832Z" fill="#191C1E" fill-opacity="1"/></g></svg>