<svg xmlns="http://www.w3.org/2000/svg" xmlns:xlink="http://www.w3.org/1999/xlink" fill="none" version="1.1" width="16" height="16" viewBox="0 0 16 16"><defs><clipPath id="master_svg0_49_09242"><rect x="0" y="0" width="16" height="16" rx="0"/></clipPath></defs><g clip-path="url(#master_svg0_49_09242)"><g><path d="M8.078000346139525,1.338000039569763L8.000000246139527,1.3333333730697632L4.666666746139526,1.3333333730697632L4.549333446139526,1.3366667064697633C3.4921190761395264,1.3987969610697633,2.6666077519655262,2.2742949730697632,2.6666667461395264,3.333333373069763L2.6666667461395264,12.666666373069763L2.6700000795395264,12.783999373069763C2.7321303341395264,13.841214373069763,3.6076283461395264,14.666725373069763,4.666666746139526,14.666666373069763L11.333333746139527,14.666666373069763L11.450667146139526,14.663333373069763C12.507880946139526,14.601203373069763,13.333392746139527,13.725705373069763,13.333333746139527,12.666666373069763L13.333333746139527,6.666666873069763L13.328666746139527,6.588666773069763C13.292541746139527,6.282339473069763,13.050993746139527,6.040791873069764,12.744666746139526,6.004666673069763L12.666666746139526,5.999999873069763L10.000000246139527,5.999999873069763L9.895333546139526,5.996000173069763C9.239569446139527,5.944569473069763,8.719292846139528,5.422594873069763,8.670000346139528,4.766666773069764L8.666666746139526,4.666666673069763L8.666666746139526,2.000000063069763L8.661999946139527,1.9220000530697632C8.625875246139525,1.6156727030697633,8.384327146139526,1.3741250970697632,8.078000346139525,1.338000039569763ZM7.999999746139526,13.333343373069763C6.159050946139526,13.333343373069763,4.666666746139526,11.840959373069763,4.666666746139526,10.000009873069763L4.670000046139526,9.855343173069762C4.7474522461395265,8.072413373069764,6.215388346139527,6.666779873069763,7.999999746139526,6.666676873069763C9.840949346139526,6.666676873069763,11.333332746139526,8.159060873069762,11.333332746139526,10.000009873069763C11.333332746139526,11.840959373069763,9.840949346139526,13.333343373069763,7.999999746139526,13.333343373069763ZM7.999674546139526,11.999989373069763Q8.097928246139526,11.999989373069763,8.195708946139526,11.990359373069763Q8.293489246139526,11.980729373069764,8.389855146139526,11.961559373069763Q8.486221046139526,11.942391373069762,8.580243846139528,11.913869373069764Q8.674266546139528,11.885348373069764,8.765040646139527,11.847748373069763Q8.855815646139526,11.810148373069763,8.942467446139526,11.763832373069762Q9.029119246139526,11.717516373069763,9.110813846139527,11.662929373069764Q9.192509446139526,11.608342373069764,9.268460946139527,11.546011373069764Q9.344412546139527,11.483680373069763,9.413887746139526,11.414203373069764Q9.483363846139525,11.344728373069763,9.545695046139526,11.268776273069763Q9.608026246139527,11.192824673069763,9.662612646139525,11.111129173069763Q9.717200046139526,11.029434573069762,9.763516646139525,10.942782773069764Q9.809833246139526,10.856129973069763,9.847432846139526,10.765355473069762Q9.885033346139526,10.674580973069764,9.913554946139527,10.580558173069763Q9.942076946139526,10.486535473069763,9.961244846139525,10.390169473069763Q9.980413646139526,10.293803573069763,9.990044346139527,10.196023373069764Q9.999674546139527,10.098243073069764,9.999674546139527,9.999989873069763Q9.999674546139527,9.901736573069764,9.990044346139527,9.803955473069763Q9.980413246139527,9.706175173069763,9.961244346139527,9.609809273069763Q9.942076446139527,9.513444273069764,9.913554946139527,9.419420573069763Q9.885032846139527,9.325396873069764,9.847432346139527,9.234621873069763Q9.809832346139526,9.143847873069763,9.763516146139526,9.057195973069764Q9.717199546139526,8.970544173069763,9.662612246139528,8.888848673069763Q9.608026246139527,8.807154073069764,9.545695046139526,8.731203473069762Q9.483363346139527,8.655251873069762,9.413887246139527,8.585775773069763Q9.344411646139527,8.516300573069763,9.268460546139526,8.453968873069762Q9.192509446139526,8.391637173069764,9.110813846139527,8.337050273069764Q9.029119246139526,8.282463473069763,8.942467446139526,8.236147273069763Q8.855815646139526,8.189830673069764,8.765040146139526,8.152230173069764Q8.674266546139528,8.114630573069764,8.580243846139528,8.086109473069763Q8.486221046139526,8.057587973069763,8.389854646139526,8.038419173069762Q8.293489246139526,8.019251273069763,8.195708546139526,8.009621073069763Q8.097928246139526,7.999989873069763,7.999674546139526,7.999989873069763Q7.901420846139526,7.999989873069763,7.803640146139526,8.009621073069763Q7.7058594461395264,8.019251273069763,7.609493446139527,8.038419173069762Q7.513128046139526,8.057587973069763,7.419105246139527,8.086109073069764Q7.325082546139527,8.114630573069764,7.234307546139527,8.152230173069764Q7.143533446139527,8.189830673069764,7.056881146139526,8.236147273069763Q6.970228946139526,8.282463473069763,6.888533846139526,8.337049873069763Q6.806838746139526,8.391637173069764,6.7308881461395265,8.453968373069763Q6.654936746139526,8.516300573069763,6.585460946139526,8.585775773069763Q6.515985246139526,8.655251873069762,6.453653546139527,8.731203473069762Q6.391322146139526,8.807154073069764,6.336735046139527,8.888848673069763Q6.282148346139526,8.970544173069763,6.235831946139527,9.057195973069764Q6.189515346139526,9.143847873069763,6.151915346139527,9.234621873069763Q6.114315246139526,9.325396873069764,6.085793746139526,9.419420573069763Q6.0572721461395265,9.513444273069764,6.038103846139526,9.609809273069763Q6.018935646139527,9.706175173069763,6.009305246139526,9.803955473069763Q5.999674546139526,9.901736573069764,5.999674546139526,9.999989873069763Q5.999674546139526,10.098243073069764,6.009305246139526,10.196023373069764Q6.018935446139526,10.293803573069763,6.038103546139526,10.390169473069763Q6.0572721461395265,10.486535473069763,6.085793746139526,10.580558173069763Q6.114315246139526,10.674580973069764,6.151915046139527,10.765355473069762Q6.189515346139526,10.856129973069763,6.235831746139526,10.942782773069764Q6.2821481461395265,11.029434573069762,6.336734746139527,11.111129173069763Q6.391321946139526,11.192824673069763,6.453653346139527,11.268777273069762Q6.515984746139527,11.344728373069763,6.585460646139526,11.414203373069764Q6.654936546139526,11.483680373069763,6.730887646139526,11.546011373069764Q6.806838746139526,11.608342373069764,6.888533346139527,11.662928373069763Q6.970228446139527,11.717515373069762,7.056880746139527,11.763831373069763Q7.143532546139526,11.810147373069762,7.234307046139526,11.847747373069764Q7.325082046139526,11.885347373069763,7.419104846139526,11.913869373069764Q7.513128046139526,11.942391373069762,7.609493446139527,11.961559373069763Q7.7058594461395264,11.980729373069764,7.803640146139526,11.990359373069763Q7.901420846139526,11.999989373069763,7.999674546139526,11.999989373069763ZM7.3336589461395265,8.997344873069764L7.3336589461395265,10.000011773069764C7.3336966461395265,10.176808673069763,7.403959546139526,10.346350073069763,7.528992446139527,10.471345273069764L8.195658946139528,11.138011373069762C8.455992446139525,11.398266373069763,8.877992346139527,11.398266373069763,9.138325446139525,11.138011373069762L9.193659046139526,11.075345373069764C9.399527346139527,10.809954973069763,9.375815646139525,10.432856873069763,9.138325446139525,10.195345273069764L8.666992446139528,9.723345173069763L8.666992446139528,8.997344873069764C8.666992446139528,8.629155073069764,8.368515746139526,8.330678373069762,8.000325446139527,8.330678373069762C7.632135646139527,8.330678373069762,7.3336589461395265,8.629155073069764,7.3336589461395265,8.997344873069764Z" fill-rule="evenodd" fill="#191C1E" fill-opacity="1"/></g><path d="M12.666666781652832,4.666666781652832L10.000000048312833,4.666666781652832L9.999333381652832,1.999333381652832L12.666666781652832,4.666666781652832Z" fill="#191C1E" fill-opacity="1"/></g></svg>